HIERARCHY
ROOT Hips
{
    OFFSET   0.000000   0.000000   0.000000
    CHANNELS 6 Xposition Yposition Zposition Zrotation Xrotation Yrotation
    JOINT Chest
    {
        OFFSET   0.000000   8.007230   0.000000
        CHANNELS 3 Zrotation Xrotation Yrotation
        JOINT Chest2
        {
            OFFSET   0.000000  22.077100   0.000000
            CHANNELS 3 Zrotation Xrotation Yrotation
            JOINT Neck
            {
                OFFSET   0.000000  23.254800  -0.000021
                CHANNELS 3 Zrotation Xrotation Yrotation
                JOINT Head
                {
                    OFFSET   0.000000  14.370000   1.956610
                    CHANNELS 3 Zrotation Xrotation Yrotation
                    End Site
                    {
                        OFFSET   0.000000  19.566000   0.000000
                    }
                }
            }
            JOINT LeftCollar
            {
                OFFSET   3.911900  19.017000  -0.467063
                CHANNELS 3 Zrotation Xrotation Yrotation
                JOINT LeftShoulder
                {
                    OFFSET  10.383700   0.000000   0.000000
                    CHANNELS 3 Zrotation Xrotation Yrotation
                    JOINT LeftElbow
                    {
                        OFFSET  26.662100   0.001529   0.000325
                        CHANNELS 3 Zrotation Xrotation Yrotation
                        JOINT LeftWrist
                        {
                            OFFSET  28.869000  -0.000011  -0.000096
                            CHANNELS 3 Zrotation Xrotation Yrotation
                            JOINT LeftFinger0
                            {
                                OFFSET   2.044650  -2.323460   3.252850
                                CHANNELS 3 Zrotation Xrotation Yrotation
                                JOINT LeftFinger01
                                {
                                    OFFSET   3.088130   0.000000   0.000000
                                    CHANNELS 3 Zrotation Xrotation Yrotation
                                    JOINT LeftFinger02
                                    {
                                        OFFSET   2.639460   0.000000   0.000000
                                        CHANNELS 3 Zrotation Xrotation Yrotation
                                        End Site
                                        {
                                            OFFSET   2.582190   0.000000   0.000000
                                        }
                                    }
                                }
                            }
                            JOINT LeftFinger1
                            {
                                OFFSET   8.364480   0.000000   3.252850
                                CHANNELS 3 Zrotation Xrotation Yrotation
                                JOINT LeftFinger11
                                {
                                    OFFSET   4.646930   0.000000   0.000000
                                    CHANNELS 3 Zrotation Xrotation Yrotation
                                    JOINT LeftFinger12
                                    {
                                        OFFSET   2.323460   0.000000   0.000000
                                        CHANNELS 3 Zrotation Xrotation Yrotation
                                        End Site
                                        {
                                            OFFSET   2.273050   0.000000   0.000000
                                        }
                                    }
                                }
                            }
                            JOINT LeftFinger2
                            {
                                OFFSET   8.364480   0.000016   1.078090
                                CHANNELS 3 Zrotation Xrotation Yrotation
                                JOINT LeftFinger21
                                {
                                    OFFSET   5.111620   0.000000   0.000000
                                    CHANNELS 3 Zrotation Xrotation Yrotation
                                    JOINT LeftFinger22
                                    {
                                        OFFSET   2.788160   0.000017   0.000000
                                        CHANNELS 3 Zrotation Xrotation Yrotation
                                        End Site
                                        {
                                            OFFSET   2.727660   0.000000   0.000000
                                        }
                                    }
                                }
                            }
                            JOINT LeftFinger3
                            {
                                OFFSET   7.899780   0.000015  -1.078090
                                CHANNELS 3 Zrotation Xrotation Yrotation
                                JOINT LeftFinger31
                                {
                                    OFFSET   4.646920   0.000000   0.000000
                                    CHANNELS 3 Zrotation Xrotation Yrotation
                                    JOINT LeftFinger32
                                    {
                                        OFFSET   2.323470   0.000000   0.000000
                                        CHANNELS 3 Zrotation Xrotation Yrotation
                                        End Site
                                        {
                                            OFFSET   2.273050   0.000000   0.000000
                                        }
                                    }
                                }
                            }
                            JOINT LeftFinger4
                            {
                                OFFSET   7.435090   0.000000  -3.252850
                                CHANNELS 3 Zrotation Xrotation Yrotation
                                JOINT LeftFinger41
                                {
                                    OFFSET   3.717550   0.000000   0.000000
                                    CHANNELS 3 Zrotation Xrotation Yrotation
                                    JOINT LeftFinger42
                                    {
                                        OFFSET   1.858760   0.000000   0.000000
                                        CHANNELS 3 Zrotation Xrotation Yrotation
                                        End Site
                                        {
                                            OFFSET   1.818440   0.000000   0.000000
                                        }
                                    }
                                }
                            }
                        }
                    }
                }
            }
            JOINT RightCollar
            {
                OFFSET  -3.911900  19.017000  -0.467062
                CHANNELS 3 Zrotation Xrotation Yrotation
                JOINT RightShoulder
                {
                    OFFSET -10.383700   0.000015   0.000000
                    CHANNELS 3 Zrotation Xrotation Yrotation
                    JOINT RightElbow
                    {
                        OFFSET -26.662100   0.001341   0.000385
                        CHANNELS 3 Zrotation Xrotation Yrotation
                        JOINT RightWrist
                        {
                            OFFSET -28.869000   0.000025  -0.000080
                            CHANNELS 3 Zrotation Xrotation Yrotation
                            JOINT RightFinger0
                            {
                                OFFSET  -2.044650  -2.323490   3.252850
                                CHANNELS 3 Zrotation Xrotation Yrotation
                                JOINT RightFinger01
                                {
                                    OFFSET  -3.088130   0.000000   0.000000
                                    CHANNELS 3 Zrotation Xrotation Yrotation
                                    JOINT RightFinger02
                                    {
                                        OFFSET  -2.639460   0.000000   0.000000
                                        CHANNELS 3 Zrotation Xrotation Yrotation
                                        End Site
                                        {
                                            OFFSET  -2.582190   0.000000   0.000000
                                        }
                                    }
                                }
                            }
                            JOINT RightFinger1
                            {
                                OFFSET  -8.364480   0.000000   3.252850
                                CHANNELS 3 Zrotation Xrotation Yrotation
                                JOINT RightFinger11
                                {
                                    OFFSET  -4.646930   0.000000   0.000000
                                    CHANNELS 3 Zrotation Xrotation Yrotation
                                    JOINT RightFinger12
                                    {
                                        OFFSET  -2.323470   0.000000   0.000000
                                        CHANNELS 3 Zrotation Xrotation Yrotation
                                        End Site
                                        {
                                            OFFSET  -2.273050   0.000000   0.000000
                                        }
                                    }
                                }
                            }
                            JOINT RightFinger2
                            {
                                OFFSET  -8.364480   0.000000   1.078090
                                CHANNELS 3 Zrotation Xrotation Yrotation
                                JOINT RightFinger21
                                {
                                    OFFSET  -5.111610   0.000000   0.000000
                                    CHANNELS 3 Zrotation Xrotation Yrotation
                                    JOINT RightFinger22
                                    {
                                        OFFSET  -2.788160   0.000000   0.000000
                                        CHANNELS 3 Zrotation Xrotation Yrotation
                                        End Site
                                        {
                                            OFFSET  -2.727660   0.000000   0.000000
                                        }
                                    }
                                }
                            }
                            JOINT RightFinger3
                            {
                                OFFSET  -7.899780   0.000000  -1.078090
                                CHANNELS 3 Zrotation Xrotation Yrotation
                                JOINT RightFinger31
                                {
                                    OFFSET  -4.646920   0.000000   0.000000
                                    CHANNELS 3 Zrotation Xrotation Yrotation
                                    JOINT RightFinger32
                                    {
                                        OFFSET  -2.323470   0.000000   0.000000
                                        CHANNELS 3 Zrotation Xrotation Yrotation
                                        End Site
                                        {
                                            OFFSET  -2.273050   0.000000   0.000000
                                        }
                                    }
                                }
                            }
                            JOINT RightFinger4
                            {
                                OFFSET  -7.435090   0.000000  -3.252850
                                CHANNELS 3 Zrotation Xrotation Yrotation
                                JOINT RightFinger41
                                {
                                    OFFSET  -3.717550   0.000000   0.000000
                                    CHANNELS 3 Zrotation Xrotation Yrotation
                                    JOINT RightFinger42
                                    {
                                        OFFSET  -1.858770   0.000000   0.000000
                                        CHANNELS 3 Zrotation Xrotation Yrotation
                                        End Site
                                        {
                                            OFFSET  -1.818440   0.000000   0.000000
                                        }
                                    }
                                }
                            }
                        }
                    }
                }
            }
        }
    }
    JOINT LeftHip
    {
        OFFSET   9.783010   0.000000   0.000000
        CHANNELS 3 Zrotation Xrotation Yrotation
        JOINT LeftKnee
        {
            OFFSET   0.000070 -41.789100   0.000028
            CHANNELS 3 Zrotation Xrotation Yrotation
            JOINT LeftAnkle
            {
                OFFSET   0.000087 -41.133200  -0.000100
                CHANNELS 3 Zrotation Xrotation Yrotation
                JOINT LeftToe
                {
                    OFFSET   0.000000  -6.358960  14.674500
                    CHANNELS 3 Zrotation Xrotation Yrotation
                    End Site
                    {
                        OFFSET   0.000000   0.000000   3.913200
                    }
                }
            }
        }
    }
    JOINT RightHip
    {
        OFFSET  -9.783020   0.000000   0.000000
        CHANNELS 3 Zrotation Xrotation Yrotation
        JOINT RightKnee
        {
            OFFSET   0.000044 -41.789100  -0.000870
            CHANNELS 3 Zrotation Xrotation Yrotation
            JOINT RightAnkle
            {
                OFFSET  -0.000090 -41.133200  -0.000245
                CHANNELS 3 Zrotation Xrotation Yrotation
                JOINT RightToe
                {
                    OFFSET   0.000000  -6.358960  14.674500
                    CHANNELS 3 Zrotation Xrotation Yrotation
                    End Site
                    {
                        OFFSET   0.000000   0.000000   3.913200
                    }
                }
            }
        }
    }
}
MOTION
Frames: 4
Frame Time:   0.016667
 -5.464600  88.871400   0.185349   0.265473 -17.214800   4.468770   2.017310   8.378450  -2.047610   4.409790  16.672300  -4.467550   0.482515  -3.194850   0.026741   0.800821  -6.478740   2.388720   0.910264  -6.912260   0.120819 -27.905000  28.974000 -85.242600  -6.537010 -19.572000 -112.348000  31.679200 -36.270400  16.856400  49.233700  38.685000 -66.813400 -23.654600  -0.002893  -0.001200  -6.827310   0.002090  -0.003006 -74.198800   7.193130  -2.026590 -60.813500   0.004138   0.003084 -45.610200  -0.001735   0.003117 -83.981300   0.001333  -0.003318 -83.981300   0.001997  -0.001157 -62.986000   0.007695   0.000083 -84.765100  -4.985280   0.459402 -84.785000   0.000954   0.003662 -63.588600  -0.002429   0.002740 -88.985800 -10.000200   0.169592 -110.000000   0.000000   0.003638 -80.000000  -0.000921  -0.001402   7.150580  -2.245800   8.669970  71.102600  18.503800   3.128250  -0.689442  -7.252300  15.994900 -26.183600 -17.684800   0.782651 -36.416100  30.506900  65.873700  32.093300   0.001684  -0.000994  11.046600   0.002023   0.006691  36.153700   3.251090   4.438600  29.681300  -0.003896   0.000132  20.776900  -0.000253   0.007830  29.696700  -3.324310  -5.806650  44.799000   0.003977   0.001845  29.836200   0.002432  -0.002339  29.206200  -4.741620  -8.411820  44.339300   0.005004  -0.000078  29.530000   0.002299  -0.000257  43.419200  -6.664360  -6.992120  65.741500  -0.000846   0.001086  43.783900   0.000747   0.005913   4.661350   7.961380   0.214040   0.623561  19.000600  12.177900  -9.480450  -9.275550   1.162030  -0.000000   0.000000   0.000000   6.700110  13.669600  -8.217890  -1.497260   7.410600  -7.881110 -10.645700  -3.004560  -6.957920  -0.000000   0.000000   0.000000
 -5.379150  88.864200   0.200987   0.199197 -17.314900   4.229950   2.004640   8.412980  -2.054750   4.388290  16.741700  -4.482550   0.353279  -3.154560   0.019446   0.585549  -6.397050   4.396020   0.850611  -7.011970   0.141187 -28.675600  29.383500 -84.573100  -6.652320 -19.136900 -112.635000  32.215000 -35.177200  16.280700  49.561700  39.021000 -67.557400 -23.608900  -0.002839  -0.001178  -6.804430   0.002131  -0.003112 -74.510500   7.113290  -1.959420 -61.064700   0.003793   0.003061 -45.798600  -0.001788   0.003092 -83.918200   0.001318  -0.003345 -83.918200   0.002011  -0.001109 -62.938700   0.007797   0.000087 -84.976800  -4.985990   0.443192 -84.995900   0.001085   0.003642 -63.746800  -0.002411   0.002725 -88.985800 -10.000200   0.169526 -110.000000   0.000000   0.003666 -80.000000  -0.000880  -0.001426   7.190020  -2.177180   8.624150  71.100200  18.193900   3.183700  -0.801855  -7.018760  16.381800 -26.374000 -17.818900   0.750634 -36.451800  30.570500  65.779800  32.148300   0.001673  -0.000998  11.074100   0.002032   0.006704  36.176200   3.165050   4.316780  29.696900  -0.003905   0.000163  20.787900  -0.000313   0.007839  29.716400  -3.412620  -5.954650  44.841700   0.003943   0.001844  29.864600   0.002424  -0.002326  29.222400  -4.850850  -8.596150  44.381000   0.004922  -0.000077  29.557800   0.002292  -0.000256  43.441500  -6.816460  -7.143410  65.801300  -0.000821   0.001088  43.823700   0.000748   0.005894   4.643020   8.081350   0.281697   0.555210  19.060000  12.295500  -9.407570  -9.356890   1.217990   0.000000   0.000000   0.000000   6.715410  13.644200  -8.101470  -1.594880   7.668240  -7.768680 -10.688400  -3.050450  -7.109450   0.000000   0.000000   0.000000
 -5.296370  88.857000   0.218412   0.124630 -17.396500   3.950480   1.979870   8.446280  -2.001160   4.332930  16.811500  -4.372210   0.244764  -3.126560   0.014545   0.405254  -6.347520   6.401270   0.803154  -7.068140   0.164946 -29.778400  29.762600 -83.687200  -6.693560 -18.488400 -112.988000  32.635200 -33.898500  15.676700  49.605400  39.247300 -67.825300 -23.797800  -0.002781  -0.001173  -6.898920   0.002171  -0.003220 -74.223900   7.186010  -2.020940 -60.833900   0.003453   0.003047 -45.625400  -0.001831   0.003056 -83.785300   0.001300  -0.003365 -83.785300   0.002025  -0.001069 -62.839000   0.007903   0.000100 -84.651200  -4.982520   0.470389 -84.671500   0.001230   0.003615 -63.503500  -0.002394   0.002712 -88.985800 -10.000100   0.169458 -110.000000   0.000000   0.003684 -80.000000  -0.000845  -0.001434   7.220050  -2.089810   8.570440  71.180800  17.939100   3.104050  -0.869133  -6.967890  16.799900 -26.599200 -18.020600   0.735233 -36.434600  30.665300  65.794400  32.268700   0.001689  -0.000979  11.134300   0.002026   0.006727  36.279500   3.065480   4.165400  29.777400  -0.003906   0.000196  20.844200  -0.000371   0.007845  29.789500  -3.525010  -6.130170  44.967800   0.003908   0.001843  29.948600   0.002411  -0.002313  29.328800  -4.939940  -8.704270  44.552800   0.004843  -0.000078  29.672200   0.002285  -0.000256  43.552100  -6.930450  -7.225010  65.985500  -0.000793   0.001085  43.946400   0.000747   0.005878   4.614220   8.187500   0.277893   0.454107  19.131600  12.478200  -9.320130  -9.462200   1.317630  -0.000000   0.000000   0.000000   6.715500  13.600300  -8.013520  -1.689610   7.915830  -7.606150 -10.731900  -3.066780  -7.209550  -0.000000   0.000000   0.000000
 -5.218420  88.852700   0.237658   0.051455 -17.464800   3.680700   1.944580   8.478530  -1.893110   4.245310  16.881600  -4.148540   0.159961  -3.115490   0.011759   0.264464  -6.318060   8.207370   0.761496  -7.105900   0.196229 -30.930200  30.078000 -82.757900  -6.701090 -17.774100 -113.352000  33.013100 -32.521500  15.226900  49.528900  39.380800 -67.817200 -24.129500  -0.002723  -0.001173  -7.064750   0.002211  -0.003330 -73.795800   7.295120  -2.112990 -60.489200   0.003134   0.003033 -45.366900  -0.001872   0.003016 -83.630800   0.001282  -0.003390 -83.630800   0.002034  -0.001029 -62.723100   0.008008   0.000114 -84.151700  -4.976430   0.511790 -84.173900   0.001373   0.003589 -63.130400  -0.002378   0.002700 -88.985800 -10.000100   0.169389 -110.000000   0.000000   0.003698 -80.000000  -0.000810  -0.001439   7.248770  -2.033620   8.536650  71.309400  17.808900   2.921190  -0.894614  -6.950230  17.141800 -26.734000 -18.225200   0.719953 -36.390800  30.778300  65.897000  32.433500   0.001705  -0.000961  11.216700   0.002019   0.006755  36.430000   2.957790   3.999790  29.890800  -0.003907   0.000230  20.923500  -0.000427   0.007850  29.876700  -3.631120  -6.290870  45.114600   0.003874   0.001842  30.046400   0.002400  -0.002301  29.458000  -4.984240  -8.745020  44.759000   0.004764  -0.000080  29.809500   0.002279  -0.000257  43.697000  -6.984070  -7.252670  66.210100  -0.000764   0.001082  44.096000   0.000744   0.005862   4.576810   8.275200   0.255140   0.341408  19.212600  12.668200  -9.223020  -9.575980   1.442280  -0.000000   0.000000   0.000000   6.709640  13.557100  -7.969420  -1.772810   8.139280  -7.454850 -10.758400  -3.075500  -7.252630   0.000000   0.000000   0.000000
